<svg xmlns="http://www.w3.org/2000/svg" xmlns:xlink="http://www.w3.org/1999/xlink" version="1.1" x="0px" y="0px" viewBox="0 0 512 640" style="enable-background:new 0 0 512 512;" xml:space="preserve"><g><g><g><g><path d="M339.787,482.031c-3.69,0-7.404-0.24-11.132-0.729c-26.089-3.419-48.612-18.439-61.796-41.21L204.88,331.798      c-1.098-1.648-2.102-3.274-3.199-5.063c-6.95-11.335-15.815-21.169-26.359-29.241l-36.459-16.364      c-0.672-0.302-1.308-0.676-1.897-1.117c-0.545-0.408-1.077-0.828-1.595-1.259c-10.561-8.765-15.427-22.153-13.014-35.813      c2.439-13.808,12.12-25.3,25.263-29.993l30.562-10.912c3.639-1.3,7.702-0.386,10.434,2.346l140.149,140.148      c3.905,3.905,3.905,10.237,0,14.143c-3.906,3.904-10.236,3.904-14.143,0L178.947,222.998l-24.602,8.784      c-6.488,2.317-11.084,7.789-12.294,14.638c-1.164,6.589,1.058,12.765,6.095,16.945c0.007,0.006,0.014,0.012,0.021,0.018      l36.381,16.329c0.675,0.303,1.313,0.68,1.905,1.123c12.953,9.715,23.813,21.64,32.278,35.445      c1.046,1.707,1.991,3.236,2.955,4.671c0.133,0.198,0.26,0.402,0.379,0.609l62.127,108.554      c10.021,17.308,27.183,28.752,47.062,31.357c19.873,2.604,39.41-4.031,53.588-18.208l59.231-59.232      c14.177-14.177,20.814-33.708,18.209-53.587c-2.572-19.632-13.769-36.614-30.757-46.708l-85.677-33.272      c-0.479-0.187-0.944-0.41-1.391-0.667c-14.54-8.418-21.176-24.211-27.031-38.146c-2.43-5.78-4.733-11.264-7.426-15.992      c-2.849-2.467-6.471-3.813-10.317-3.813c-4.23,0-8.188,1.628-11.146,4.586L277.1,207.87c-4.338,4.337-9.663,7.105-15.256,8.302      l97.639,97.639c3.905,3.905,3.905,10.237,0,14.143c-3.906,3.904-10.236,3.904-14.143,0L219.194,201.807      c-2.874-2.874-3.722-7.201-2.147-10.947c1.575-3.746,5.297-6.138,9.324-6.124c8.091,0.085,15.693,3.278,21.406,8.991      c4.185,4.186,10.996,4.184,15.18,0l11.438-11.438c6.734-6.734,15.716-10.443,25.288-10.443c9.573,0,18.554,3.709,25.288,10.444      c0.578,0.578,1.083,1.225,1.504,1.926c3.723,6.205,6.604,13.06,9.39,19.689c4.968,11.823,9.667,23.005,18.017,28.225      l85.63,33.254c0.479,0.186,0.944,0.409,1.39,0.667c22.771,13.183,37.792,35.706,41.211,61.796      c3.419,26.089-5.291,51.723-23.896,70.328l-59.231,59.232C383.037,473.353,361.922,482.03,339.787,482.031z"/></g><g><path d="M321.692,361.601c-2.56,0-5.118-0.977-7.071-2.929L107.267,151.318c-1.875-1.875-2.929-4.419-2.929-7.071      s1.054-5.196,2.929-7.071l30.719-30.719c3.905-3.904,10.237-3.904,14.142,0l207.354,207.354c3.905,3.905,3.905,10.237,0,14.143      c-3.906,3.904-10.236,3.904-14.143,0L145.058,127.67l-16.577,16.577l200.283,200.282c3.905,3.905,3.905,10.237,0,14.143      C326.811,360.624,324.252,361.601,321.692,361.601z"/></g><g><path d="M298.652,384.64c-2.56,0-5.118-0.977-7.071-2.929c-3.905-3.905-3.905-10.237,0-14.143l76.798-76.797      c3.907-3.905,10.237-3.903,14.143,0c3.905,3.905,3.905,10.237,0,14.143l-76.798,76.797      C303.771,383.663,301.211,384.64,298.652,384.64z"/></g><g><path d="M321.692,407.68c-2.56,0-5.118-0.977-7.071-2.929c-3.905-3.905-3.905-10.237,0-14.143l76.797-76.798      c3.906-3.904,10.236-3.904,14.143,0c3.905,3.905,3.905,10.237,0,14.143l-76.797,76.798      C326.811,406.703,324.252,407.68,321.692,407.68z"/></g><g><path d="M114.336,154.247c-2.157,0-4.322-0.695-6.137-2.106L39.081,98.382c-2.264-1.761-3.663-4.409-3.841-7.272      s0.881-5.665,2.909-7.693l46.079-46.079c2.028-2.027,4.828-3.089,7.693-2.909c2.863,0.178,5.511,1.577,7.272,3.841      l53.758,69.118c3.096,3.98,2.744,9.644-0.823,13.21l-30.719,30.719C119.469,153.258,116.909,154.247,114.336,154.247z       M60.302,89.55l53.208,41.384l18.234-18.235L90.36,59.491L60.302,89.55z"/></g><g><path d="M106.659,69.77c-2.559,0-5.118-0.976-7.071-2.929c-3.905-3.905-3.906-10.237,0-14.142l15.359-15.36      c3.905-3.905,10.237-3.906,14.142,0s3.906,10.237,0,14.142l-15.359,15.36C111.777,68.793,109.218,69.77,106.659,69.77z"/></g><g><path d="M129.698,92.809c-2.56,0-5.118-0.976-7.071-2.929c-3.905-3.905-3.905-10.237,0-14.142l15.36-15.359      c3.905-3.904,10.237-3.905,14.142,0s3.905,10.237,0,14.142l-15.36,15.359C134.816,91.833,132.257,92.809,129.698,92.809z"/></g><g><path d="M45.221,131.208c-2.559,0-5.119-0.976-7.071-2.929c-3.905-3.905-3.905-10.237,0-14.143l15.359-15.359      c3.905-3.905,10.237-3.905,14.143,0c3.905,3.905,3.905,10.237,0,14.143l-15.359,15.359      C50.339,130.232,47.78,131.208,45.221,131.208z"/></g><g><path d="M68.26,154.247c-2.559,0-5.119-0.976-7.071-2.929c-3.905-3.905-3.905-10.237,0-14.143l15.359-15.359      c3.905-3.905,10.237-3.905,14.143,0c3.905,3.905,3.905,10.237,0,14.143l-15.359,15.359      C73.378,153.271,70.819,154.247,68.26,154.247z"/></g><g><path d="M151,439.979c-16.542,0-30-13.458-30-30s13.458-30,30-30s30,13.458,30,30S167.542,439.979,151,439.979z M151,399.979      c-5.514,0-10,4.486-10,10s4.486,10,10,10s10-4.486,10-10S156.514,399.979,151,399.979z"/></g><g><path d="M131,419.979c-5.523,0-10-4.478-10-10V361.64c-6.688,2.399-15.309,8.172-20.682,21.968      c-2.004,5.146-7.799,7.695-12.948,5.689c-5.146-2.005-7.693-7.802-5.689-12.947c14.809-38.021,48.492-36.443,49.92-36.353      c5.28,0.317,9.398,4.692,9.398,9.981v60C141,415.501,136.523,419.979,131,419.979z"/></g><g><path d="M463.499,219.994c-15.163,0-27.5-12.336-27.5-27.5s12.337-27.5,27.5-27.5c15.164,0,27.501,12.336,27.501,27.5      S478.663,219.994,463.499,219.994z M463.499,184.993c-4.136,0-7.5,3.365-7.5,7.5s3.364,7.5,7.5,7.5s7.501-3.365,7.501-7.5      S467.635,184.993,463.499,184.993z"/></g><g><path d="M445.999,202.493c-5.522,0-10-4.477-10-10v-40.436c-5.299,2.35-11.598,7.324-15.683,17.814      c-2.005,5.147-7.805,7.693-12.947,5.689c-5.146-2.004-7.693-7.801-5.689-12.948c13.284-34.108,43.628-32.68,44.921-32.603      c5.279,0.318,9.398,4.693,9.398,9.982v52.501C455.999,198.016,451.521,202.493,445.999,202.493z"/></g><g><path d="M231,129.979c-16.542,0-30-13.458-30-30s13.458-30,30-30s30,13.458,30,30S247.542,129.979,231,129.979z M231,89.979      c-5.514,0-10,4.486-10,10s4.486,10,10,10s10-4.486,10-10S236.514,89.979,231,89.979z"/></g><g><path d="M251,109.979c-5.523,0-10-4.477-10-10v-60c0-5.117,3.863-9.409,8.952-9.945c5.093-0.537,9.762,2.856,10.828,7.86      c0.041,0.186,5.062,22.09,19.693,22.09c0.104,0,0.208-0.001,0.313-0.003c13.14-0.281,20.371,4.841,24.118,9.187      c7.944,9.215,6.18,21.162,5.952,22.494l-19.715-3.366l-0.022,0.142c0.146-1.051,0.2-4.456-1.404-6.258      c-1.811-2.036-6.103-2.252-8.503-2.204c-7.36,0.155-14.229-1.947-20.213-6.088v26.09C261,105.501,256.523,109.979,251,109.979z"/></g><g><path d="M51,329.979c-16.542,0-30-13.458-30-30s13.458-30,30-30s30,13.458,30,30S67.542,329.979,51,329.979z M51,289.979      c-5.514,0-10,4.486-10,10s4.486,10,10,10s10-4.486,10-10S56.514,289.979,51,289.979z"/></g></g></g></g><text x="0" y="527" fill="#000000" font-size="5px" font-weight="bold" font-family="'Helvetica Neue', Helvetica, Arial-Unicode, Arial, Sans-serif">Created by Flatart</text><text x="0" y="532" fill="#000000" font-size="5px" font-weight="bold" font-family="'Helvetica Neue', Helvetica, Arial-Unicode, Arial, Sans-serif">from the Noun Project</text></svg>