<svg xmlns="http://www.w3.org/2000/svg" xmlns:xlink="http://www.w3.org/1999/xlink" version="1.1" x="0px" y="0px" viewBox="0 0 512 640" style="enable-background:new 0 0 512 512;" xml:space="preserve"><g><g><g><g><path d="M486,251h-40c-5.522,0-10,4.477-10,10v120c0,5.515-4.486,10-10,10s-10-4.485-10-10V171c0-16.542-13.458-30-30-30      s-30,13.458-30,30v240c0,5.515-4.486,10-10,10s-10-4.485-10-10V251c0-16.542-13.458-30-30-30s-30,13.458-30,30v210      c0,5.515-4.486,10-10,10s-10-4.485-10-10V131c0-16.542-13.458-30-30-30s-30,13.458-30,30v220c0,5.515-4.485,10-10,10      c-5.514,0-10-4.485-10-10V51c0-16.542-13.458-30-30-30s-30,13.458-30,30v410c0,5.515-4.485,10-10,10c-5.514,0-10-4.485-10-10      V151c0-16.542-13.458-30-30-30s-30,13.458-30,30v110H26c-5.522,0-10,4.478-10,10c0,5.523,4.478,10,10,10h20      c5.523,0,10-4.477,10-10V151c0-5.514,4.486-10,10-10c5.515,0,10,4.486,10,10v310c0,16.542,13.458,30,30,30s30-13.458,30-30V51      c0-5.514,4.486-10,10-10c5.515,0,10,4.486,10,10v300c0,16.542,13.458,30,30,30s30-13.458,30-30V131c0-5.514,4.486-10,10-10      c5.515,0,10,4.486,10,10v330c0,16.542,13.458,30,30,30s30-13.458,30-30V251c0-5.514,4.486-10,10-10s10,4.486,10,10v160      c0,16.542,13.458,30,30,30s30-13.458,30-30V171c0-5.514,4.486-10,10-10s10,4.486,10,10v210c0,16.542,13.458,30,30,30      s30-13.458,30-30V271h30c5.522,0,10-4.477,10-10C496,255.477,491.522,251,486,251z"/><path d="M406,121c16.542,0,30-13.458,30-30V64.91c5.983,4.141,12.851,6.239,20.213,6.088c2.4-0.052,6.692,0.168,8.503,2.204      c1.604,1.802,1.55,5.207,1.404,6.258l0.022-0.142l19.715,3.366c0.228-1.332,1.992-13.279-5.952-22.494      c-3.746-4.345-10.987-9.476-24.118-9.187c-0.105,0.002-0.21,0.003-0.313,0.003c-14.632,0-19.652-21.905-19.693-22.09      c-1.066-5.005-5.74-8.396-10.828-7.86C419.863,21.591,416,25.883,416,31v31.72c-3.13-1.11-6.494-1.72-10-1.72      c-16.542,0-30,13.458-30,30S389.458,121,406,121z"/></g></g></g></g><text x="0" y="527" fill="#000000" font-size="5px" font-weight="bold" font-family="'Helvetica Neue', Helvetica, Arial-Unicode, Arial, Sans-serif">Created by Flatart</text><text x="0" y="532" fill="#000000" font-size="5px" font-weight="bold" font-family="'Helvetica Neue', Helvetica, Arial-Unicode, Arial, Sans-serif">from the Noun Project</text></svg>